<?xml version="1.0" standalone="no"?>
<!DOCTYPE svg PUBLIC "-//W3C//DTD SVG 20010904//EN"
 "http://www.w3.org/TR/2001/REC-SVG-20010904/DTD/svg10.dtd">
<svg version="1.0" xmlns="http://www.w3.org/2000/svg"
 width="512.000000pt" height="512.000000pt" viewBox="0 0 512.000000 512.000000"
 preserveAspectRatio="xMidYMid meet">
<metadata>
Created by potrace 1.14, written by Peter Selinger 2001-2017
</metadata>
<g transform="translate(0.000000,512.000000) scale(0.100000,-0.100000)"
fill="#000000" stroke="none">
<path d="M386 5109 c-175 -42 -338 -208 -376 -385 -7 -33 -10 -734 -8 -2194
l3 -2145 28 -66 c53 -126 160 -233 287 -286 l65 -28 2175 0 2175 0 65 28 c127
53 234 160 287 286 l28 66 0 2175 0 2175 -28 66 c-53 126 -160 233 -287 286
l-65 28 -2155 2 c-1278 0 -2171 -3 -2194 -8z m3749 -1875 c252 -46 387 -206
373 -443 -9 -145 -89 -262 -223 -326 -30 -14 -55 -28 -55 -30 0 -3 35 -52 78
-109 104 -142 281 -429 282 -458 0 -5 -47 -8 -104 -8 l-104 0 -62 108 c-78
133 -122 199 -219 329 l-76 103 -142 0 -143 0 0 -270 0 -270 -100 0 -100 0 0
679 c0 639 1 680 18 685 49 14 98 20 207 26 146 9 264 4 370 -16z m-2545 -74
l0 -80 -220 0 -220 0 0 -610 0 -610 -95 0 -95 0 0 610 0 610 -220 0 -220 0 0
80 0 80 535 0 535 0 0 -80z m502 -22 c73 -131 234 -464 329 -680 40 -93 76
-165 79 -160 4 4 44 93 91 197 94 214 269 572 330 676 l40 69 85 0 c59 0 86
-4 89 -12 10 -34 68 -762 85 -1083 6 -110 12 -219 14 -242 l4 -43 -97 0 -97 0
-13 303 c-7 166 -19 390 -26 497 -8 107 -15 207 -15 223 0 15 -4 27 -8 27 -11
0 -192 -376 -313 -648 l-94 -213 -79 3 -80 3 -44 100 c-161 366 -349 761 -358
752 -12 -11 -32 -314 -60 -909 l-6 -138 -94 0 -94 0 0 39 c0 176 72 1149 96
1304 l6 37 87 0 86 0 57 -102z"/>
<path d="M3758 3084 c-17 -5 -18 -27 -18 -266 l0 -261 173 6 c194 5 256 19
313 69 54 48 75 98 76 182 1 90 -21 145 -78 194 -66 59 -124 74 -299 78 -82 1
-158 1 -167 -2z"/>
</g>
</svg>
